<svg width="150" height="150" viewBox="0 0 150 150" fill="none" xmlns="http://www.w3.org/2000/svg">
<mask id="mask0_2_18" style="mask-type:alpha" maskUnits="userSpaceOnUse" x="4" y="31" width="143" height="87">
<path d="M4 115.627V90.8382C4 90.3157 4.20449 89.8139 4.56973 89.4402L60.2149 32.5095C61.4681 31.2274 63.6452 32.1146 63.6452 33.9075V58.6965C63.6452 59.219 63.4407 59.7208 63.0754 60.0944L7.43027 117.025C6.1771 118.307 4 117.42 4 115.627Z" fill="#9D0300"/>
<path d="M45.2928 115.627V90.8382C45.2928 90.3157 45.4973 89.8139 45.8625 89.4402L101.508 32.5095C102.761 31.2274 104.938 32.1146 104.938 33.9075V58.6965C104.938 59.219 104.733 59.7208 104.368 60.0944L48.7231 117.025C47.4699 118.307 45.2928 117.42 45.2928 115.627Z" fill="#9D0300"/>
<path d="M86.5856 115.627V90.8382C86.5856 90.3157 86.7901 89.8139 87.1553 89.4402L142.8 32.5095C144.054 31.2274 146.231 32.1146 146.231 33.9075V58.6965C146.231 59.219 146.026 59.7208 145.661 60.0944L90.0159 117.025C88.7627 118.307 86.5856 117.42 86.5856 115.627Z" fill="#9D0300"/>
</mask>
<g mask="url(#mask0_2_18)">
<rect x="2.86102e-06" y="23.505" width="150" height="151.485" fill="url(#paint0_linear_2_18)"/>
</g>
<defs>
<linearGradient id="paint0_linear_2_18" x1="2.86102e-06" y1="99.2475" x2="150" y2="99.2475" gradientUnits="userSpaceOnUse">
<stop stop-color="#E74C3C"/>
<stop offset="1" stop-color="#2C3E50"/>
</linearGradient>
</defs>
</svg>
